<?xml version="1.0" encoding="UTF-8" standalone="no"?>
<svg xmlns="http://www.w3.org/2000/svg" version="1.2" baseProfile="tiny" viewBox="0.00 0.00 1015.00 860.00">
<path fill="#ffffff" d="
  M 525.22 4.48
  Q 548.76 13.93 560.25 34.73
  Q 562.19 38.25 568.33 53.05
  Q 574.70 68.41 601.99 134.29
  Q 607.19 146.85 608.50 153.09
  C 614.03 179.51 602.34 207.20 579.74 221.69
  Q 574.41 225.10 561.76 230.35
  Q 539.97 239.39 530.58 243.28
  Q 517.88 248.54 511.70 249.81
  C 490.36 254.19 468.03 247.61 452.46 232.41
  A 2.02 2.02 0.0 0 0 450.16 232.05
  Q 422.60 245.69 398.85 262.82
  C 350.85 297.46 310.53 348.66 293.82 405.59
  C 277.84 460.01 283.95 517.42 312.84 566.85
  C 321.69 581.99 332.31 597.16 344.98 609.52
  C 406.86 669.85 496.22 678.62 573.58 645.02
  C 607.73 630.18 637.15 608.95 663.54 582.41
  Q 696.84 548.90 715.29 506.11
  A 1.66 1.66 0.0 0 0 715.08 504.45
  C 699.28 484.08 696.00 456.25 706.76 432.99
  Q 716.80 411.29 721.83 400.41
  Q 727.37 388.43 731.45 382.95
  C 748.72 359.73 777.78 349.20 805.46 356.60
  Q 811.62 358.25 823.98 364.00
  Q 843.13 372.90 900.02 399.43
  Q 913.05 405.50 917.74 408.63
  C 942.23 424.98 953.41 454.86 946.29 483.64
  Q 944.64 490.28 939.05 502.27
  Q 936.03 508.73 924.81 532.38
  Q 908.28 567.22 869.72 573.40
  Q 869.23 573.48 869.07 573.95
  Q 864.00 588.53 862.22 593.22
  Q 842.63 644.62 810.44 687.71
  C 770.61 741.02 719.19 784.96 659.83 815.03
  Q 593.82 848.48 520.15 857.24
  Q 505.54 858.78 490.75 859.46
  Q 468.90 860.46 439.95 858.40
  Q 426.64 857.46 422.06 856.97
  Q 421.13 856.59 420.24 856.55
  Q 397.30 852.95 382.19 849.32
  Q 275.18 823.66 198.50 746.27
  C 165.44 712.90 138.97 673.02 120.98 630.75
  Q 83.55 542.78 90.86 446.04
  C 101.36 307.19 182.28 183.48 302.57 114.59
  Q 344.81 90.39 391.12 76.80
  A 1.03 1.02 86.8 0 0 391.84 75.99
  Q 396.30 49.11 417.60 32.72
  C 420.89 30.19 426.21 27.01 429.65 25.60
  Q 453.60 15.75 470.64 8.72
  Q 476.36 6.36 481.97 3.86
  Q 496.50 -0.31 510.26 1.18
  Q 517.05 1.91 525.22 4.48
  Z"
/>
<path fill="#ff3131" d="
  M 481.97 3.86
  Q 476.36 6.36 470.64 8.72
  Q 453.60 15.75 429.65 25.60
  C 426.21 27.01 420.89 30.19 417.60 32.72
  Q 396.30 49.11 391.84 75.99
  A 1.03 1.02 86.8 0 1 391.12 76.80
  Q 344.81 90.39 302.57 114.59
  C 182.28 183.48 101.36 307.19 90.86 446.04
  Q 83.55 542.78 120.98 630.75
  C 138.97 673.02 165.44 712.90 198.50 746.27
  Q 275.18 823.66 382.19 849.32
  Q 397.30 852.95 420.24 856.55
  Q 417.76 856.42 416.49 857.27
  Q 410.85 858.63 404.32 857.93
  C 399.22 856.76 394.07 857.29 388.88 857.37
  Q 388.35 857.38 387.70 857.99
  Q 387.29 857.98 387.08 857.84
  Q 384.59 857.31 382.20 857.85
  L 366.54 857.88
  Q 365.83 857.69 365.21 857.89
  L 362.01 857.90
  Q 360.16 857.31 358.69 857.88
  Q 347.07 857.93 335.42 857.94
  C 326.58 857.94 316.35 856.97 306.75 856.99
  Q 292.73 857.01 66.25 857.04
  Q 63.92 857.04 62.72 856.71
  Q 57.00 855.15 52.21 853.60
  C 36.85 848.64 22.87 837.04 13.87 823.49
  Q 5.13 810.36 2.43 794.82
  Q 1.70 790.60 1.74 787.82
  C 1.79 784.64 1.19 781.78 1.19 778.40
  Q 1.19 746.56 1.22 714.75
  L 1.12 102.17
  Q 0.99 76.07 1.96 69.47
  Q 6.65 37.77 31.94 18.41
  Q 45.32 8.17 63.04 4.51
  Q 69.63 3.15 79.59 3.23
  C 88.20 3.30 96.12 3.06 102.47 3.05
  Q 283.19 3.01 463.92 3.07
  C 469.26 3.08 475.86 4.16 481.97 3.86
  Z"
/>
<path fill="#253e90" d="
  M 520.15 857.24
  Q 593.82 848.48 659.83 815.03
  C 719.19 784.96 770.61 741.02 810.44 687.71
  Q 842.63 644.62 862.22 593.22
  Q 864.00 588.53 869.07 573.95
  Q 869.23 573.48 869.72 573.40
  Q 908.28 567.22 924.81 532.38
  Q 936.03 508.73 939.05 502.27
  Q 944.64 490.28 946.29 483.64
  C 953.41 454.86 942.23 424.98 917.74 408.63
  Q 913.05 405.50 900.02 399.43
  Q 843.13 372.90 823.98 364.00
  Q 811.62 358.25 805.46 356.60
  C 777.78 349.20 748.72 359.73 731.45 382.95
  Q 727.37 388.43 721.83 400.41
  Q 716.80 411.29 706.76 432.99
  C 696.00 456.25 699.28 484.08 715.08 504.45
  A 1.66 1.66 0.0 0 1 715.29 506.11
  Q 696.84 548.90 663.54 582.41
  C 637.15 608.95 607.73 630.18 573.58 645.02
  C 496.22 678.62 406.86 669.85 344.98 609.52
  C 332.31 597.16 321.69 581.99 312.84 566.85
  C 283.95 517.42 277.84 460.01 293.82 405.59
  C 310.53 348.66 350.85 297.46 398.85 262.82
  Q 422.60 245.69 450.16 232.05
  A 2.02 2.02 0.0 0 1 452.46 232.41
  C 468.03 247.61 490.36 254.19 511.70 249.81
  Q 517.88 248.54 530.58 243.28
  Q 539.97 239.39 561.76 230.35
  Q 574.41 225.10 579.74 221.69
  C 602.34 207.20 614.03 179.51 608.50 153.09
  Q 607.19 146.85 601.99 134.29
  Q 574.70 68.41 568.33 53.05
  Q 562.19 38.25 560.25 34.73
  Q 548.76 13.93 525.22 4.48
  Q 529.81 4.14 534.07 3.78
  Q 537.86 3.47 543.00 3.44
  Q 573.22 3.28 617.57 3.25
  Q 829.54 3.13 939.81 3.38
  Q 945.78 3.39 953.11 4.67
  C 957.96 5.52 961.09 7.24 965.33 8.41
  Q 966.64 8.78 970.05 10.45
  Q 985.13 17.86 996.32 31.18
  C 1005.67 42.32 1010.53 54.90 1012.76 69.23
  Q 1013.85 76.23 1013.85 89.00
  Q 1013.84 212.81 1013.84 760.50
  C 1013.84 777.48 1014.05 787.21 1011.20 800.53
  Q 1008.66 812.44 1000.28 824.58
  Q 981.76 851.40 949.93 857.26
  Q 943.21 858.50 930.01 858.47
  C 912.76 858.43 898.27 858.63 883.49 858.63
  Q 724.55 858.65 565.60 858.66
  Q 562.23 858.66 555.42 858.32
  C 551.04 858.10 546.00 858.72 541.83 857.40
  C 536.56 855.73 531.09 857.09 525.89 857.16
  Q 523.05 857.20 520.15 857.24
  Z"
/>
<path fill="#253e90" d="
  M 1.22 714.75
  L 1.12 102.17
  L 1.22 714.75
  Z"
/>
<path fill="#ffffff" d="
  M 962.32 163.95
  L 962.32 184.22
  A 0.43 0.43 0.0 0 1 961.89 184.65
  L 920.46 184.65
  A 0.43 0.43 0.0 0 0 920.03 185.08
  L 920.03 226.66
  A 0.43 0.43 0.0 0 1 919.60 227.09
  L 899.29 227.09
  A 0.43 0.43 0.0 0 1 898.86 226.66
  L 898.86 121.64
  A 0.43 0.43 0.0 0 1 899.29 121.21
  L 961.89 121.21
  A 0.43 0.43 0.0 0 1 962.32 121.64
  L 962.32 141.95
  A 0.43 0.43 0.0 0 1 961.89 142.38
  L 920.41 142.38
  A 0.43 0.43 0.0 0 0 919.98 142.81
  L 919.98 163.09
  A 0.43 0.43 0.0 0 0 920.41 163.52
  L 961.89 163.52
  A 0.43 0.43 0.0 0 1 962.32 163.95
  Z"
/>
<path fill="#ffffff" d="
  M 667.89 121.21
  L 709.12 121.21
  A 0.54 0.54 0.0 0 1 709.66 121.75
  L 709.66 141.83
  A 0.54 0.54 0.0 0 1 709.12 142.37
  L 667.83 142.37
  A 0.54 0.54 0.0 0 0 667.29 142.91
  L 667.29 205.35
  A 0.54 0.54 0.0 0 1 666.75 205.89
  L 646.65 205.89
  A 0.54 0.54 0.0 0 1 646.11 205.35
  L 646.11 142.96
  A 0.54 0.54 0.0 0 1 646.65 142.42
  L 666.81 142.42
  A 0.54 0.54 0.0 0 0 667.35 141.88
  L 667.35 121.75
  A 0.54 0.54 0.0 0 1 667.89 121.21
  Z"
/>
<path fill="#ffffff" d="
  M 800.90 206.31
  L 800.90 226.65
  A 0.45 0.45 0.0 0 1 800.45 227.10
  L 737.90 227.10
  A 0.45 0.45 0.0 0 1 737.45 226.65
  L 737.45 121.68
  A 0.45 0.45 0.0 0 1 737.90 121.23
  L 757.91 121.23
  A 0.45 0.45 0.0 0 1 758.36 121.68
  L 758.36 205.41
  A 0.45 0.45 0.0 0 0 758.81 205.86
  L 800.45 205.86
  A 0.45 0.45 0.0 0 1 800.90 206.31
  Z"
/>
<path fill="#ffffff" d="
  M 849.86 163.60
  Q 866.45 163.60 870.51 163.50
  Q 871.03 163.49 871.03 162.97
  L 871.03 121.71
  Q 871.03 121.20 871.54 121.20
  L 891.76 121.20
  A 0.42 0.41 89.9 0 1 892.17 121.62
  Q 892.13 147.87 892.12 174.16
  Q 892.12 200.45 892.17 226.70
  A 0.42 0.41 -89.9 0 1 891.75 227.12
  L 871.53 227.11
  Q 871.02 227.11 871.03 226.60
  L 871.03 185.34
  Q 871.03 184.82 870.51 184.81
  Q 866.45 184.71 849.86 184.71
  Q 833.26 184.71 829.20 184.81
  Q 828.68 184.82 828.68 185.34
  L 828.68 226.60
  Q 828.68 227.11 828.17 227.11
  L 807.95 227.11
  A 0.42 0.41 89.9 0 1 807.54 226.69
  Q 807.59 200.44 807.59 174.15
  Q 807.59 147.86 807.55 121.61
  A 0.42 0.41 -89.9 0 1 807.96 121.19
  L 828.18 121.20
  Q 828.69 121.20 828.69 121.71
  L 828.68 162.97
  Q 828.68 163.49 829.20 163.50
  Q 833.27 163.60 849.86 163.60
  Z"
/>
<path fill="#ffffff" d="
  M 709.25 184.63
  L 688.99 184.63
  A 0.41 0.41 0.0 0 1 688.58 184.22
  L 688.58 163.92
  A 0.41 0.41 0.0 0 1 688.99 163.51
  L 730.35 163.51
  A 0.41 0.41 0.0 0 1 730.76 163.92
  L 730.76 226.70
  A 0.41 0.41 0.0 0 1 730.35 227.11
  L 667.76 227.11
  A 0.41 0.41 0.0 0 1 667.35 226.70
  L 667.35 206.28
  A 0.41 0.41 0.0 0 1 667.76 205.87
  L 709.25 205.87
  A 0.41 0.41 0.0 0 0 709.66 205.46
  L 709.66 185.04
  A 0.41 0.41 0.0 0 0 709.25 184.63
  Z"
/>
<path fill="#253e90" d="
  M 420.24 856.55
  Q 421.13 856.59 422.06 856.97
  L 416.49 857.27
  Q 417.76 856.42 420.24 856.55
  Z"
/>
<path fill="#253e90" d="
  M 404.32 857.93
  L 387.70 857.99
  Q 388.35 857.38 388.88 857.37
  C 394.07 857.29 399.22 856.76 404.32 857.93
  Z"
/>
<path fill="#253e90" d="
  M 362.01 857.90
  L 358.69 857.88
  Q 360.16 857.31 362.01 857.90
  Z"
/>
<path fill="#253e90" d="
  M 366.54 857.88
  L 365.21 857.89
  Q 365.83 857.69 366.54 857.88
  Z"
/>
<path fill="#253e90" d="
  M 387.08 857.84
  L 382.20 857.85
  Q 384.59 857.31 387.08 857.84
  Z"
/>
</svg>
